<svg width="44" height="45" viewBox="0 0 44 45" fill="none" xmlns="http://www.w3.org/2000/svg">
<rect y="0.5" width="44" height="44" rx="22" fill="#DBDBDB" fill-opacity="0.1"/>
<path d="M27.3332 17.1667H28.8795C30.2664 17.1667 31.4218 18.2298 31.5369 19.6119L32.4258 30.2785C32.5554 31.8333 31.3285 33.1667 29.7684 33.1667H14.2313C12.6712 33.1667 11.4443 31.8333 11.5738 30.2785L12.4627 19.6119C12.5779 18.2298 13.7333 17.1667 15.1202 17.1667H16.6665M27.3332 17.1667H16.6665M27.3332 17.1667L27.3332 15.8333C27.3332 14.4188 26.7713 13.0623 25.7711 12.0621C24.7709 11.0619 23.4143 10.5 21.9998 10.5C20.5854 10.5 19.2288 11.0619 18.2286 12.0621C17.2284 13.0623 16.6665 14.4188 16.6665 15.8333L16.6665 17.1667M27.3332 17.1667L27.3332 22.5M16.6665 17.1667L16.6665 22.5" stroke="white" stroke-width="2" stroke-linecap="round" stroke-linejoin="round"/>
<circle cx="40" cy="4.5" r="4" fill="#D90000"/>
</svg>
